<svg width="56" height="56" viewBox="0 0 56 56" fill="none" xmlns="http://www.w3.org/2000/svg">
<rect width="55.5" height="55.5" rx="27.75" fill="#FEFEFE"/>
<path d="M41.8125 44.5469H13.6875C13.0469 44.5469 12.5156 44.0156 12.5156 43.375C12.5156 42.7344 13.0469 42.2031 13.6875 42.2031H41.8125C42.4531 42.2031 42.9844 42.7344 42.9844 43.375C42.9844 44.0156 42.4531 44.5469 41.8125 44.5469Z" fill="#EB3609"/>
<path d="M17.75 22.0938H15.25C14.3906 22.0938 13.6875 22.7969 13.6875 23.6562V37.125C13.6875 37.9844 14.3906 38.6875 15.25 38.6875H17.75C18.6094 38.6875 19.3125 37.9844 19.3125 37.125V23.6562C19.3125 22.7812 18.6094 22.0938 17.75 22.0938Z" fill="#CACACA"/>
<path d="M29 17.1094H26.5C25.6406 17.1094 24.9375 17.8125 24.9375 18.6719V37.1249C24.9375 37.9843 25.6406 38.6874 26.5 38.6874H29C29.8594 38.6874 30.5625 37.9843 30.5625 37.1249V18.6719C30.5625 17.8125 29.8594 17.1094 29 17.1094Z" fill="#CACACA"/>
<path d="M40.25 12.125H37.75C36.8906 12.125 36.1875 12.8281 36.1875 13.6875V37.125C36.1875 37.9844 36.8906 38.6875 37.75 38.6875H40.25C41.1094 38.6875 41.8125 37.9844 41.8125 37.125V13.6875C41.8125 12.8281 41.1094 12.125 40.25 12.125Z" fill="#CACACA"/>
</svg>
